# xmcd
#
# Track frame offsets:
#	150
#	16098
#	26796
#	42969
#	62292
#	79665
#	95088
#	108561
#	120309
#	132507
#	148155
#	166728
#	183801
#	199224
#	216822
#	233520
#	240018
#	251466
#
# Disc length: 3543 seconds
#
# Revision: 1
# Processed by: cddbd v1.5.2PL0 Copyright (c) Steve Scherf et al.
# Submitted via: audiograbber 1.83.01
#
DISCID=e30dd512
DTITLE=Tutti - Now I'm here
DYEAR=2009
DGENRE=Country
TTITLE0=All summer long
TTITLE1=Bobby Brown
TTITLE2=Angel
TTITLE3=Fly in heaven
TTITLE4=Jack and Diana
TTITLE5=It's all over now
TTITLE6=Mr. Internet
TTITLE7=Rocky Raccoon
TTITLE8=Stand up
TTITLE9=Gabelstapler Klaus
TTITLE10=Cortez the killer
TTITLE11=Wonderwall
TTITLE12=Now I'm here
TTITLE13=Out on the weekend
TTITLE14=No mercy
TTITLE15=Mercedes Benz
TTITLE16=Heart of gold
TTITLE17=Don't know where you are
EXTD=
EXTT0=
EXTT1=
EXTT2=
EXTT3=
EXTT4=
EXTT5=
EXTT6=
EXTT7=
EXTT8=
EXTT9=
EXTT10=
EXTT11=
EXTT12=
EXTT13=
EXTT14=
EXTT15=
EXTT16=
EXTT17=
PLAYORDER=
